{"title":"Love Child - S03E01","uid":15115947,"size":361141229,"categoryP":"video","categoryS":"tv_shows","magnet":"?xt=urn:btih:ebb1993589b79606059212a3921eb87c6c0197ad&amp;dn=Love+Child+-+S03E01&amp;tr=udp%3A%2F%2Ftracker.leechers-paradise.org%3A6969&amp;tr=udp%3A%2F%2Fzer0day.ch%3A1337&amp;tr=udp%3A%2F%2Fopen.demonii.com%3A1337&amp;tr=udp%3A%2F%2Ftracker.coppersurfer.tk%3A6969&amp;tr=udp%3A%2F%2Fexodus.desync.com%3A6969","seeders":14,"leechers":2,"uploader":"Bullrout","files":1,"time":1467048267,"description":"Love Child - S03E01\r\n\r\nIt's 1970 and the times they are a-changing. Joan is devastated to discover an infection has left her almost certainly infertile while delinquent teen Maggie is determined to discover the identity of her birth mother.\r\n\r\nComplete name : Love Child - S03E01.mp4\r\nFormat : MPEG-4\r\nFormat profile : Base Media / Version 2\r\nCodec ID : mp42 (mp42/isom/avc1)\r\nFile size : 344 MiB\r\nDuration : 43mn 40s\r\nOverall bit rate mode : Variable\r\nOverall bit rate : 1 103 Kbps\r\n\r\nVideo\r\nID : 2\r\nFormat : AVC\r\nFormat/Info : Advanced Video Codec\r\nFormat profile :   \r\nFormat settings, CABAC : Yes\r\nFormat settings, ReFrames : 3 frames\r\nCodec ID : avc1\r\nCodec ID/Info : Advanced Video Coding\r\nDuration : 43mn 40s\r\nBit rate mode : Variable\r\nBit rate : 971 Kbps\r\nMaximum bit rate : 1 000 Kbps\r\nWidth : 720 pixels\r\nHeight : 404 pixels\r\nDisplay aspect ratio : 16:9\r\nOriginal display aspect ratio : 16:9\r\nFrame rate mode : Constant\r\nFrame rate : 25.000 fps\r\nStandard : PAL\r\nColor space : YUV\r\nChroma subsampling : 4:2:0\r\nBit depth : 8 bits\r\nScan type : Progressive\r\nBits/(Pixel*Frame) : 0.134\r\nStream size : 303 MiB (88%)\r\nWriting library : x264 core 112\r\nColor range : Limited\r\nColor primaries : BT.601 PAL\r\nTransfer characteristics : BT.470 System B, BT.470 System G\r\nMatrix coefficients : BT.601\r\n\r\nAudio\r\nID : 1\r\nFormat : AAC\r\nFormat/Info : Advanced Audio Codec\r\nFormat profile : LC\r\nCodec ID : 40\r\nDuration : 43mn 40s\r\nBit rate mode : Variable\r\nBit rate : 128 Kbps\r\nMaximum bit rate : 576 Kbps\r\nChannel(s) : 2 channels\r\nChannel positions : Front: L R\r\nSampling rate : 48.0 KHz\r\nFrame rate : 46.875 fps (1024 spf)\r\nCompression mode : Lossy\r\nStream size : 40.0 MiB (12%)","torrent":{"xt":"urn:btih:ebb1993589b79606059212a3921eb87c6c0197ad","amp;dn":"Love+Child+-+S03E01","amp;tr":["udp%3A%2F%2Ftracker.leechers-paradise.org%3A6969","udp%3A%2F%2Fzer0day.ch%3A1337","udp%3A%2F%2Fopen.demonii.com%3A1337","udp%3A%2F%2Ftracker.coppersurfer.tk%3A6969","udp%3A%2F%2Fexodus.desync.com%3A6969"],"infoHash":"ebb1993589b79606059212a3921eb87c6c0197ad","infoHashBuffer":{"type":"Buffer","data":[235,177,153,53,137,183,150,6,5,146,18,163,146,30,184,124,108,1,151,173]},"announce":[],"urlList":[]}}